<svg width="640" height="420" viewBox="0 0 640 420" fill="none" xmlns="http://www.w3.org/2000/svg">
  <defs>
    <linearGradient id="employeeGradient" x1="0" y1="0" x2="640" y2="420" gradientUnits="userSpaceOnUse">
      <stop stop-color="#0EA5E9" />
      <stop offset="1" stop-color="#2563EB" />
    </linearGradient>
  </defs>
  <rect width="640" height="420" rx="40" fill="url(#employeeGradient)" />
  <rect x="118" y="90" width="404" height="250" rx="28" fill="#F8FAFC" />
  <rect x="144" y="120" width="176" height="176" rx="22" fill="#E0F2FE" />
  <rect x="168" y="146" width="90" height="10" rx="5" fill="#0F172A" />
  <rect x="168" y="172" width="70" height="8" rx="4" fill="#64748B" />
  <rect x="168" y="196" width="80" height="8" rx="4" fill="#64748B" />
  <rect x="168" y="220" width="70" height="8" rx="4" fill="#64748B" />
  <rect x="168" y="252" width="88" height="28" rx="10" fill="#38BDF8" />
  <rect x="346" y="120" width="140" height="84" rx="20" fill="#F8FAFC" stroke="#CBD5E1" stroke-width="2" />
  <rect x="368" y="142" width="78" height="10" rx="5" fill="#0F172A" />
  <rect x="368" y="162" width="96" height="8" rx="4" fill="#94A3B8" />
  <rect x="346" y="224" width="140" height="72" rx="20" fill="#F8FAFC" stroke="#CBD5E1" stroke-width="2" />
  <rect x="368" y="246" width="92" height="10" rx="5" fill="#0F172A" />
  <rect x="368" y="266" width="74" height="8" rx="4" fill="#94A3B8" />
  <rect x="480" y="154" width="24" height="24" rx="8" fill="#2563EB" />
  <path d="M487 166H500" stroke="#F8FAFC" stroke-width="4" stroke-linecap="round" />
  <path d="M493.5 159.5V172.5" stroke="#F8FAFC" stroke-width="4" stroke-linecap="round" />
  <text x="320" y="386" fill="#F8FAFC" font-size="34" font-weight="700" text-anchor="middle" font-family="Inter, sans-serif">Employee Management</text>
</svg>