<svg width="640" height="420" viewBox="0 0 640 420" fill="none" xmlns="http://www.w3.org/2000/svg">
  <defs>
    <linearGradient id="studentMgmtGradient" x1="0" y1="0" x2="640" y2="420" gradientUnits="userSpaceOnUse">
      <stop stop-color="#0EA5E9" />
      <stop offset="1" stop-color="#2563EB" />
    </linearGradient>
  </defs>
  <rect width="640" height="420" rx="40" fill="url(#studentMgmtGradient)" />
  <rect x="110" y="90" width="420" height="250" rx="28" fill="#F8FAFC" />
  <rect x="136" y="118" width="112" height="200" rx="20" fill="#E0F2FE" />
  <rect x="158" y="144" width="68" height="10" rx="5" fill="#0F172A" />
  <rect x="158" y="172" width="54" height="8" rx="4" fill="#64748B" />
  <rect x="158" y="196" width="60" height="8" rx="4" fill="#64748B" />
  <rect x="158" y="220" width="46" height="8" rx="4" fill="#64748B" />
  <rect x="158" y="286" width="70" height="28" rx="10" fill="#38BDF8" />
  <rect x="280" y="118" width="214" height="74" rx="20" fill="#F8FAFC" stroke="#CBD5E1" stroke-width="2" />
  <rect x="304" y="142" width="82" height="10" rx="5" fill="#0F172A" />
  <rect x="304" y="164" width="108" height="8" rx="4" fill="#94A3B8" />
  <rect x="280" y="212" width="214" height="106" rx="20" fill="#F8FAFC" stroke="#CBD5E1" stroke-width="2" />
  <rect x="304" y="236" width="90" height="10" rx="5" fill="#0F172A" />
  <rect x="304" y="258" width="126" height="8" rx="4" fill="#94A3B8" />
  <rect x="304" y="280" width="96" height="8" rx="4" fill="#94A3B8" />
  <circle cx="454" cy="156" r="20" fill="#38BDF8" />
  <path d="M444 156L452 164L466 148" stroke="#F8FAFC" stroke-width="6" stroke-linecap="round" stroke-linejoin="round" />
  <text x="320" y="386" fill="#F8FAFC" font-size="38" font-weight="700" text-anchor="middle" font-family="Inter, sans-serif">Student Management</text>
</svg>
